<svg width="620" height="538" xmlns="http://www.w3.org/2000/svg" xmlns:xlink="http://www.w3.org/1999/xlink" overflow="hidden"><g transform="translate(-184 -88)"><rect x="342.5" y="129.5" width="393" height="405" stroke="#172C51" stroke-width="1.33333" stroke-miterlimit="8" fill="#A9D18E"/><rect x="393.5" y="89.5001" width="290" height="101" stroke="#172C51" stroke-width="1.33333" stroke-miterlimit="8" fill="#AFABAB"/><rect x="308.5" y="205.5" width="363" height="372" stroke="#172C51" stroke-width="1.33333" stroke-miterlimit="8" fill="#F2F2F2"/><text font-family="Calibri,Calibri_MSFontService,sans-serif" font-weight="400" font-size="221" transform="translate(317.821 433)">SGS</text><text font-family="Calibri,Calibri_MSFontService,sans-serif" font-weight="400" font-size="53" transform="translate(406.881 542)">Custo</text><text font-family="Calibri,Calibri_MSFontService,sans-serif" font-weight="400" font-size="53" transform="translate(529.094 542)">m</text><path d="M701.691 363 750.459 446.921 804 416.652 779.766 494.152 781.042 496.773C783.469 503.089 784.777 509.804 784.777 516.766 784.777 553.898 747.578 584 701.691 584 655.804 584 618.606 553.898 618.606 516.766 618.606 512.125 619.187 507.593 620.294 503.216L620.955 501.134 601 427.135 652.293 448.007Z" fill="#FF0303" fill-rule="evenodd"/><path d="M701.379 393 738.855 465.529 780 439.369 761.376 506.348 762.357 508.614C764.223 514.072 765.228 519.876 765.228 525.893 765.228 557.985 736.641 584 701.379 584 666.116 584 637.529 557.985 637.529 525.893 637.529 521.881 637.976 517.965 638.827 514.182L639.335 512.383 624 448.429 663.417 466.468Z" fill="#FFC000" fill-rule="evenodd"/></g></svg>